<svg xmlns="http://www.w3.org/2000/svg"  viewBox="0 0 100 100" width="500px" height="500px"><path fill="#fdfcee" d="M69.882,80h-39c-6.6,0-12-5.4-12-12V29c0-6.6,5.4-12,12-12h39c6.6,0,12,5.4,12,12v39C81.882,74.6,76.482,80,69.882,80z"/><path fill="#1f212b" d="M69.882,81h-39c-7.168,0-13-5.832-13-13V29c0-7.168,5.832-13,13-13h39c7.168,0,13,5.832,13,13v39C82.882,75.168,77.05,81,69.882,81z M30.882,18c-6.065,0-11,4.935-11,11v39c0,6.065,4.935,11,11,11h39c6.065,0,11-4.935,11-11V29c0-6.065-4.935-11-11-11H30.882z"/><path fill="#fdfcee" d="M77.382,46.5v18.663c0,5.685-4.652,10.337-10.337,10.337H33.719c-5.685,0-10.337-4.652-10.337-10.337V31.837c0-5.685,4.652-10.337,10.337-10.337h33.663"/><path fill="#1f212b" d="M67.045,76H33.719c-5.976,0-10.837-4.861-10.837-10.837V31.837C22.882,25.861,27.743,21,33.719,21h33.663c0.276,0,0.5,0.224,0.5,0.5s-0.224,0.5-0.5,0.5H33.719c-5.424,0-9.837,4.413-9.837,9.837v33.326c0,5.424,4.413,9.837,9.837,9.837h33.326c5.424,0,9.837-4.413,9.837-9.837V46.5c0-0.276,0.224-0.5,0.5-0.5s0.5,0.224,0.5,0.5v18.663C77.882,71.139,73.021,76,67.045,76z"/><path fill="#1f212b" d="M77.382 45c-.276 0-.5-.224-.5-.5v-4c0-.276.224-.5.5-.5s.5.224.5.5v4C77.882 44.776 77.658 45 77.382 45zM77.382 39c-.276 0-.5-.224-.5-.5v-2c0-.276.224-.5.5-.5s.5.224.5.5v2C77.882 38.776 77.658 39 77.382 39z"/><path fill="#f27c7d" d="M42.926,46.568v4.874c0,0,4.722-0.01,6.651-0.01c-1.045,3.154-2.66,4.874-6.651,4.874c-4.038,0-7.183-3.268-7.183-7.306s3.154-7.306,7.183-7.306c2.138,0,3.515,0.751,4.779,1.796c1.017-1.017,0.931-1.159,3.506-3.591c-2.185-1.986-5.093-3.202-8.275-3.202c-6.793,0-12.304,5.511-12.304,12.304s5.511,12.304,12.304,12.304c10.157,0,12.636-8.845,11.81-14.736C52.342,46.568,42.926,46.568,42.926,46.568z M65.102,46.805v-4.266h-3.04v4.266h-4.38v3.04h4.38v4.38h3.04v-4.38h4.266v-3.04H65.102z"/><path fill="#1f212b" d="M42.936,61.804c-7.06,0-12.804-5.744-12.804-12.804s5.744-12.804,12.804-12.804c3.189,0,6.248,1.183,8.611,3.332c0.104,0.094,0.163,0.226,0.164,0.365s-0.056,0.273-0.156,0.368c-1.677,1.584-2.203,2.175-2.668,2.696c-0.247,0.277-0.472,0.528-0.828,0.885c-0.181,0.183-0.473,0.196-0.672,0.032c-1.056-0.873-2.327-1.681-4.46-1.681c-3.748,0-6.684,2.99-6.684,6.806s2.936,6.806,6.684,6.806c3.578,0,5.013-1.465,5.941-3.874c-2.18,0.001-5.94,0.009-5.94,0.009h-0.001c-0.133,0-0.26-0.053-0.354-0.146c-0.094-0.094-0.146-0.221-0.146-0.354v-4.874c0-0.276,0.224-0.5,0.5-0.5h11.819c0.249,0,0.461,0.184,0.495,0.431c0.469,3.342-0.071,8.112-2.995,11.474C50.035,60.515,46.903,61.804,42.936,61.804z M42.936,37.196c-6.509,0-11.804,5.295-11.804,11.804s5.295,11.804,11.804,11.804c3.665,0,6.544-1.173,8.556-3.488c2.581-2.968,3.148-7.156,2.813-10.248H43.427v3.873c1.267-0.002,4.604-0.009,6.15-0.009c0.16,0,0.312,0.077,0.405,0.207c0.094,0.13,0.12,0.298,0.069,0.45c-1.228,3.706-3.292,5.217-7.125,5.217c-4.309,0-7.684-3.429-7.684-7.806s3.375-7.806,7.684-7.806c2.206,0,3.64,0.779,4.736,1.622c0.178-0.188,0.323-0.351,0.478-0.524c0.438-0.492,0.931-1.044,2.327-2.377C48.351,38.158,45.696,37.196,42.936,37.196z M65.102,54.726h-3.04c-0.276,0-0.5-0.224-0.5-0.5v-3.88h-3.88c-0.276,0-0.5-0.224-0.5-0.5v-3.041c0-0.276,0.224-0.5,0.5-0.5h3.88v-3.766c0-0.276,0.224-0.5,0.5-0.5h3.04c0.276,0,0.5,0.224,0.5,0.5v3.766h3.767c0.276,0,0.5,0.224,0.5,0.5v3.041c0,0.276-0.224,0.5-0.5,0.5h-3.767v3.88C65.602,54.502,65.378,54.726,65.102,54.726z M62.562,53.726h2.04v-3.88c0-0.276,0.224-0.5,0.5-0.5h3.767v-2.041h-3.767c-0.276,0-0.5-0.224-0.5-0.5v-3.766h-2.04v3.766c0,0.276-0.224,0.5-0.5,0.5h-3.88v2.041h3.88c0.276,0,0.5,0.224,0.5,0.5V53.726z"/></svg>