<svg xmlns="http://www.w3.org/2000/svg" xmlns:xlink="http://www.w3.org/1999/xlink" width="1000" zoomAndPan="magnify" viewBox="0 0 750 112.499997" height="150" preserveAspectRatio="xMidYMid meet" version="1.0"><defs><g/><clipPath id="508304a4b4"><path d="M 1.660156 0 L 109.929688 0 L 109.929688 112 L 1.660156 112 Z M 1.660156 0 " clip-rule="nonzero"/></clipPath></defs><path fill="#f7f7f0" d="M 107.929688 44.003906 L 107.929688 74 L 105.929688 75.992188 L 103.933594 77.984375 L 99.910156 77.984375 L 99.910156 38.003906 L 97.914062 36.011719 L 93.894531 32.027344 L 91.894531 27.191406 L 85.875 24.011719 L 81.855469 20.027344 L 73.839844 16.019531 L 65.820312 12.035156 L 63.824219 10.023438 L 47.789062 10.023438 L 45.765625 12.035156 L 37.75 16.019531 L 29.730469 20.027344 L 25.710938 24.011719 L 19.714844 27.191406 L 17.695312 32.027344 L 13.695312 36.011719 L 11.675781 38.003906 L 11.675781 77.984375 L 7.679688 77.984375 L 5.679688 75.992188 L 3.65625 74 L 3.65625 44.003906 L 5.679688 40.019531 L 7.679688 37.152344 L 7.679688 26.027344 L 9.675781 24.011719 L 13.695312 20.027344 L 17.695312 16.019531 L 25.710938 12.035156 L 33.75 8.03125 L 41.769531 4.046875 L 45.765625 2.03125 L 65.820312 2.03125 L 69.839844 4.046875 L 77.859375 8.03125 L 85.875 12.035156 L 93.894531 16.019531 L 97.914062 20.027344 L 101.910156 24.011719 L 103.933594 26.027344 L 103.933594 37.152344 L 105.929688 40.019531 Z M 21.714844 71.984375 L 17.695312 71.984375 L 17.695312 75.992188 L 21.648438 75.992188 L 21.648438 83.984375 L 25.667969 83.984375 L 25.667969 75.992188 L 21.714844 75.992188 Z M 25.6875 87.988281 L 29.710938 87.988281 L 29.710938 83.984375 L 25.6875 83.984375 Z M 89.894531 75.992188 L 93.914062 75.992188 L 93.914062 71.984375 L 89.894531 71.984375 Z M 81.855469 87.988281 L 85.875 87.988281 L 85.875 83.984375 L 81.855469 83.984375 Z M 85.875 79.976562 L 85.875 83.984375 L 89.894531 83.984375 L 89.894531 75.992188 L 85.875 75.992188 Z M 85.875 79.976562 " fill-opacity="1" fill-rule="nonzero"/><path fill="#c1c2d9" d="M 44.554688 93.964844 L 44.554688 89.960938 L 41.746094 87.96875 L 39.746094 83.960938 L 39.746094 81.96875 L 37.75 79.976562 L 36.402344 77.984375 L 36.402344 69.992188 L 33.730469 68 L 31.730469 65.113281 L 31.730469 61.195312 L 29.730469 60.007812 L 27.734375 58.015625 L 24.320312 58.015625 L 21.714844 60.007812 L 19.152344 62 L 11.675781 62 L 11.675781 80.828125 L 13.675781 83.984375 L 17.695312 91.972656 L 25.734375 107.957031 L 27.734375 109.253906 L 39.769531 109.253906 L 41.769531 107.957031 L 45.789062 103.949219 L 47.789062 102.472656 L 47.789062 97.949219 L 45.789062 95.957031 Z M 25.667969 79.976562 L 25.667969 83.984375 L 21.648438 83.984375 L 21.648438 75.96875 L 17.695312 75.96875 L 17.695312 71.960938 L 21.714844 71.960938 L 21.714844 75.96875 L 25.667969 75.96875 Z M 29.710938 87.988281 L 25.6875 87.988281 L 25.6875 83.984375 L 29.710938 83.984375 Z M 92.433594 62 L 89.875 60.007812 L 87.269531 58.015625 L 83.855469 58.015625 L 81.855469 60.007812 L 79.855469 61.195312 L 79.855469 65.113281 L 77.859375 68 L 75.1875 69.992188 L 75.1875 77.984375 L 73.839844 79.976562 L 71.839844 81.96875 L 71.839844 83.960938 L 69.839844 87.96875 L 67.035156 89.960938 L 67.035156 93.964844 L 65.820312 95.957031 L 63.824219 97.949219 L 63.824219 102.472656 L 65.820312 103.949219 L 69.839844 107.957031 L 71.839844 109.253906 L 83.878906 109.253906 L 85.875 107.957031 L 93.914062 91.972656 L 97.9375 83.984375 L 99.933594 80.828125 L 99.933594 62 Z M 85.851562 87.988281 L 81.832031 87.988281 L 81.832031 83.984375 L 85.851562 83.984375 Z M 93.894531 75.992188 L 89.894531 75.992188 L 89.894531 83.984375 L 85.875 83.984375 L 85.875 75.96875 L 89.875 75.96875 L 89.875 71.984375 L 93.894531 71.984375 Z M 89.894531 75.96875 Z M 89.894531 75.96875 " fill-opacity="1" fill-rule="nonzero"/><g clip-path="url(#508304a4b4)"><path fill="#ff0303" d="M 33.75 16.019531 L 37.75 16.019531 L 37.75 20.027344 L 29.730469 20.027344 L 29.730469 16.019531 Z M 25.710938 24.011719 L 17.695312 24.011719 L 17.695312 32.027344 L 13.695312 32.027344 L 13.695312 36.011719 L 9.675781 36.011719 L 9.675781 24.035156 L 13.695312 24.035156 L 13.695312 20.027344 L 9.675781 20.027344 L 9.675781 24.011719 L 5.679688 24.011719 L 5.679688 40.019531 L 9.675781 40.019531 L 9.675781 75.992188 L 5.679688 75.992188 L 5.679688 79.976562 L 9.675781 79.976562 L 9.675781 83.984375 L 13.695312 83.984375 L 13.695312 91.972656 L 17.695312 91.972656 L 17.695312 99.964844 L 21.714844 99.964844 L 21.714844 107.957031 L 25.710938 107.957031 L 25.710938 111.964844 L 41.769531 111.964844 L 41.769531 107.980469 L 45.789062 107.980469 L 45.789062 103.972656 L 49.785156 103.972656 L 49.785156 95.980469 L 45.765625 95.980469 L 45.765625 103.972656 L 41.769531 103.972656 L 41.769531 107.957031 L 37.75 107.957031 L 37.75 103.972656 L 33.75 103.972656 L 33.75 99.964844 L 29.730469 99.964844 L 29.730469 91.972656 L 25.710938 91.972656 L 25.710938 83.984375 L 21.714844 83.984375 L 21.714844 75.992188 L 17.695312 75.992188 L 17.695312 71.984375 L 13.695312 71.984375 L 13.695312 63.992188 L 21.714844 63.992188 L 21.714844 60.007812 L 13.695312 60.007812 L 13.695312 36.035156 L 17.714844 36.035156 L 17.714844 32.027344 L 21.714844 32.027344 L 21.714844 28.019531 L 25.710938 28.019531 L 25.710938 24.011719 L 29.730469 24.035156 L 29.730469 20.027344 L 25.710938 20.027344 Z M 37.75 12.035156 L 37.75 16.019531 L 45.765625 16.019531 L 45.765625 12.035156 Z M 33.75 12.035156 L 33.75 8.03125 L 25.710938 8.03125 L 25.710938 12.035156 Z M 17.714844 16.019531 L 25.710938 16.019531 L 25.710938 12.035156 L 17.695312 12.035156 L 17.714844 16.019531 L 13.695312 16.019531 L 13.695312 20.027344 L 17.714844 20.027344 Z M 49.785156 4.046875 L 69.839844 4.046875 L 69.839844 0.0390625 L 41.769531 0.0390625 L 41.769531 4.046875 Z M 41.769531 8.03125 L 41.769531 4.046875 L 33.75 4.046875 L 33.75 8.03125 L 37.75 8.03125 C 37.75 8.03125 41.769531 8.03125 41.769531 8.03125 Z M 5.679688 68 L 5.679688 40.019531 L 1.660156 40.019531 L 1.660156 75.992188 L 5.679688 75.992188 Z M 29.730469 60.007812 L 29.730469 56 L 21.714844 56 L 21.714844 60.007812 Z M 29.730469 68 L 33.75 68 L 33.75 60.007812 L 29.730469 60.007812 Z M 33.75 75.992188 L 33.75 79.976562 L 37.75 79.976562 L 37.75 68 L 33.75 68 Z M 37.75 87.988281 L 41.769531 87.988281 L 41.769531 79.976562 L 37.75 79.976562 Z M 41.769531 95.980469 L 45.765625 95.980469 L 45.765625 87.988281 L 41.769531 87.988281 Z M 77.859375 16.019531 L 73.839844 16.019531 L 73.839844 20.027344 L 81.855469 20.027344 L 81.855469 16.019531 Z M 93.894531 24.011719 L 85.875 24.011719 L 85.875 20.027344 L 81.855469 20.027344 L 81.855469 24.035156 L 85.875 24.035156 L 85.875 28.019531 L 89.894531 28.019531 L 89.894531 32.027344 L 93.894531 32.027344 Z M 61.824219 8.03125 L 45.765625 8.03125 L 45.765625 12.035156 L 65.820312 12.035156 L 65.820312 8.03125 Z M 69.839844 12.035156 L 65.820312 12.035156 L 65.820312 16.019531 L 73.839844 16.019531 L 73.839844 12.035156 Z M 81.855469 12.035156 L 85.875 12.035156 L 85.875 8.03125 L 77.859375 8.03125 L 77.859375 12.035156 Z M 89.894531 16.019531 L 93.894531 16.019531 L 93.894531 12.035156 L 85.875 12.035156 L 85.875 16.019531 C 85.875 16.019531 89.894531 16.019531 89.894531 16.019531 Z M 97.914062 20.027344 L 97.914062 16.019531 L 93.894531 16.019531 L 93.894531 20.027344 Z M 73.839844 8.03125 L 77.859375 8.03125 L 77.859375 4.046875 L 69.839844 4.046875 L 69.839844 8.03125 C 69.839844 8.03125 73.839844 8.03125 73.839844 8.03125 Z M 105.929688 40.019531 L 105.929688 75.992188 L 109.929688 75.992188 L 109.929688 40.019531 Z M 89.894531 60.007812 L 89.894531 56 L 81.855469 56 L 81.855469 60.007812 Z M 81.855469 63.992188 L 81.855469 60.007812 L 77.859375 60.007812 L 77.859375 68 L 81.855469 68 Z M 77.859375 75.992188 L 77.859375 68 L 73.839844 68 L 73.839844 79.976562 L 77.859375 79.976562 Z M 73.839844 83.984375 L 73.839844 79.976562 L 69.839844 79.976562 L 69.839844 87.988281 L 73.839844 87.988281 Z M 69.839844 91.972656 L 69.839844 87.988281 L 65.820312 87.988281 L 65.820312 95.980469 L 69.839844 95.980469 Z M 65.820312 95.980469 L 61.824219 95.980469 L 61.824219 103.972656 L 65.820312 103.972656 Z M 101.910156 71.984375 L 101.910156 40.019531 L 105.929688 40.019531 L 105.929688 24.011719 L 101.933594 24.011719 L 101.933594 20.027344 L 97.914062 20.027344 L 97.914062 24.035156 L 101.910156 24.035156 L 101.910156 36.011719 L 97.914062 36.011719 L 97.914062 32.027344 L 93.894531 32.027344 L 93.894531 36.035156 L 97.914062 36.035156 L 97.914062 60.007812 L 89.894531 60.007812 L 89.894531 63.992188 L 97.914062 63.992188 L 97.914062 71.984375 L 93.894531 71.984375 L 93.894531 75.992188 L 89.894531 75.992188 L 89.894531 83.984375 L 85.875 83.984375 L 85.875 91.972656 L 81.855469 91.972656 L 81.855469 99.964844 L 77.859375 99.964844 L 77.859375 103.972656 L 73.839844 103.972656 L 73.839844 107.957031 L 69.839844 107.957031 L 69.839844 103.972656 L 65.820312 103.972656 L 65.820312 107.980469 L 69.839844 107.980469 L 69.839844 111.964844 L 85.875 111.964844 L 85.875 107.957031 L 89.894531 107.957031 L 89.894531 99.964844 L 93.894531 99.964844 L 93.894531 91.972656 L 97.914062 91.972656 L 97.914062 83.984375 L 101.910156 83.984375 L 101.910156 79.976562 L 105.929688 79.976562 L 105.929688 75.992188 L 101.910156 75.992188 Z M 101.910156 71.984375 " fill-opacity="1" fill-rule="nonzero"/></g><path stroke-linecap="butt" transform="matrix(0.746681, 0, 0, 0.746681, 113.17464, 21.254276)" fill="none" stroke-linejoin="miter" d="M 17.281113 52.204462 L 6.525186 52.204462 L 6.525186 62.965621 L 17.281113 62.965621 L 17.281113 73.747705 L 28.063197 73.747705 L 28.063197 84.508863 L 38.824355 84.508863 L 38.824355 73.747705 L 28.063197 73.747705 L 28.063197 62.965621 L 17.281113 62.965621 Z M 28.063197 30.666452 L 28.063197 41.422378 L 38.824355 41.422378 L 38.824355 30.666452 Z M 28.063197 41.422378 L 17.281113 41.422378 L 17.281113 52.204462 L 28.063197 52.204462 Z M 57.322875 26.172609 L 57.322875 88.997474 L 68.084033 88.997474 L 68.084033 47.715851 L 78.866117 47.715851 L 78.866117 58.471778 L 89.627275 58.471778 L 89.627275 47.715851 L 78.866117 47.715851 L 78.866117 36.933767 L 68.084033 36.933767 L 68.084033 26.172609 Z M 100.409359 47.715851 L 100.409359 88.997474 L 111.165286 88.997474 L 111.165286 26.172609 L 100.409359 26.172609 L 100.409359 36.933767 L 89.627275 36.933767 L 89.627275 47.715851 Z M 140.424964 36.933767 L 161.962975 36.933767 L 161.962975 52.204462 L 140.424964 52.204462 L 140.424964 36.933767 L 129.663806 36.933767 L 129.663806 88.997474 L 140.424964 88.997474 L 140.424964 62.965621 L 161.962975 62.965621 L 161.962975 88.997474 L 172.745059 88.997474 L 172.745059 36.933767 L 161.962975 36.933767 L 161.962975 26.172609 L 140.424964 26.172609 Z M 201.994274 36.933767 L 223.537516 36.933767 L 223.537516 52.204462 L 234.3196 52.204462 L 234.3196 36.933767 L 223.537516 36.933767 L 223.537516 26.172609 L 191.233116 26.172609 L 191.233116 88.997474 L 201.994274 88.997474 L 201.994274 62.965621 L 223.537516 62.965621 L 223.537516 88.997474 L 234.3196 88.997474 L 234.3196 62.965621 L 223.537516 62.965621 L 223.537516 52.204462 L 201.994274 52.204462 Z M 252.802426 88.997474 L 263.563584 88.997474 L 263.563584 26.172609 L 252.802426 26.172609 Z M 282.156271 36.933767 L 282.156271 52.204462 L 292.912197 52.204462 L 292.912197 62.965621 L 314.455439 62.965621 L 314.455439 78.220622 L 325.237524 78.220622 L 325.237524 62.965621 L 314.455439 62.965621 L 314.455439 52.204462 L 292.912197 52.204462 L 292.912197 36.933767 Z M 292.912197 78.220622 L 292.912197 67.459463 L 282.156271 67.459463 L 282.156271 78.220622 L 292.912197 78.220622 L 292.912197 88.997474 L 314.455439 88.997474 L 314.455439 78.220622 Z M 292.912197 26.172609 L 292.912197 36.933767 L 314.455439 36.933767 L 314.455439 47.715851 L 325.237524 47.715851 L 325.237524 36.933767 L 314.455439 36.933767 L 314.455439 26.172609 Z M 343.72558 36.933767 L 343.72558 78.220622 L 354.486739 78.220622 L 354.486739 88.997474 L 376.024749 88.997474 L 376.024749 78.220622 L 354.486739 78.220622 L 354.486739 36.933767 Z M 354.486739 26.172609 L 354.486739 36.933767 L 376.024749 36.933767 L 376.024749 47.715851 L 386.806834 47.715851 L 386.806834 36.933767 L 376.024749 36.933767 L 376.024749 26.172609 Z M 386.806834 78.220622 L 386.806834 67.459463 L 376.024749 67.459463 L 376.024749 78.220622 Z M 416.056049 36.933767 L 437.599291 36.933767 L 437.599291 52.204462 L 416.056049 52.204462 L 416.056049 36.933767 L 405.29489 36.933767 L 405.29489 88.997474 L 416.056049 88.997474 L 416.056049 62.965621 L 437.599291 62.965621 L 437.599291 88.997474 L 448.376143 88.997474 L 448.376143 36.933767 L 437.599291 36.933767 L 437.599291 26.172609 L 416.056049 26.172609 Z M 466.8642 26.172609 L 466.8642 88.997474 L 509.950685 88.997474 L 509.950685 78.220622 L 477.625358 78.220622 L 477.625358 26.172609 Z M 539.194668 36.933767 L 560.737911 36.933767 L 560.737911 78.220622 L 571.519995 78.220622 L 571.519995 36.933767 L 560.737911 36.933767 L 560.737911 26.172609 L 528.438742 26.172609 L 528.438742 88.997474 L 560.737911 88.997474 L 560.737911 78.220622 L 539.194668 78.220622 Z M 590.008052 26.172609 L 590.008052 88.997474 L 633.089305 88.997474 L 633.089305 78.220622 L 600.763978 78.220622 L 600.763978 62.965621 L 622.307221 62.965621 L 622.307221 52.204462 L 600.763978 52.204462 L 600.763978 36.933767 L 633.089305 36.933767 L 633.089305 26.172609 Z M 673.209539 78.220622 L 673.209539 67.459463 L 662.427455 67.459463 L 662.427455 26.172609 L 651.666297 26.172609 L 651.666297 67.459463 L 662.427455 67.459463 L 662.427455 78.220622 L 673.209539 78.220622 L 673.209539 88.997474 L 683.965466 88.997474 L 683.965466 78.220622 Z M 694.74755 26.172609 L 694.74755 67.459463 L 705.508708 67.459463 L 705.508708 26.172609 Z M 683.965466 67.459463 L 683.965466 78.220622 L 694.74755 78.220622 L 694.74755 67.459463 Z M 777.849639 26.172609 L 777.849639 36.666961 L 788.631723 36.666961 L 788.631723 26.172609 Z M 724.007228 78.503122 L 724.007228 88.997474 L 734.768386 88.997474 L 734.768386 78.503122 Z M 745.55047 57.577194 L 745.55047 68.092473 L 756.306397 68.092473 L 756.306397 57.577194 Z M 756.306397 47.07761 L 756.306397 57.577194 L 767.088481 57.577194 L 767.088481 47.07761 Z M 767.088481 36.666961 L 767.088481 47.07761 L 777.849639 47.07761 L 777.849639 36.666961 Z M 734.768386 68.092473 L 734.768386 78.503122 L 745.55047 78.503122 L 745.55047 68.092473 Z M 807.114549 30.666452 L 807.114549 41.422378 L 817.875707 41.422378 L 817.875707 52.204462 L 828.657791 52.204462 L 828.657791 62.965621 L 839.418949 62.965621 L 839.418949 52.204462 L 828.657791 52.204462 L 828.657791 41.422378 L 817.875707 41.422378 L 817.875707 30.666452 Z M 807.114549 73.747705 L 807.114549 84.508863 L 817.875707 84.508863 L 817.875707 73.747705 Z M 817.875707 62.965621 L 817.875707 73.747705 L 828.657791 73.747705 L 828.657791 62.965621 Z M 817.875707 62.965621 " stroke="#800000" stroke-width="8.752243" stroke-opacity="1" stroke-miterlimit="4"/><g fill="#ff0303" fill-opacity="1"><g transform="translate(114.691337, 87.708917)"><g><path d="M 11.394531 -27.480469 L 3.351562 -27.480469 L 3.351562 -19.4375 L 11.394531 -19.4375 L 11.394531 -11.394531 L 19.4375 -11.394531 L 19.4375 -3.351562 L 27.480469 -3.351562 L 27.480469 -11.394531 L 19.4375 -11.394531 L 19.4375 -19.4375 L 11.394531 -19.4375 Z M 19.4375 -43.5625 L 19.4375 -35.523438 L 27.480469 -35.523438 L 27.480469 -43.5625 Z M 19.4375 -35.523438 L 11.394531 -35.523438 L 11.394531 -27.480469 L 19.4375 -27.480469 Z M 19.4375 -35.523438 "/></g></g></g><g fill="#ff0303" fill-opacity="1"><g transform="translate(152.622969, 87.708917)"><g><path d="M 3.351562 -46.914062 L 3.351562 0 L 11.394531 0 L 11.394531 -30.832031 L 19.4375 -30.832031 L 19.4375 -22.789062 L 27.480469 -22.789062 L 27.480469 -30.832031 L 19.4375 -30.832031 L 19.4375 -38.871094 L 11.394531 -38.871094 L 11.394531 -46.914062 Z M 35.523438 -30.832031 L 35.523438 0 L 43.5625 0 L 43.5625 -46.914062 L 35.523438 -46.914062 L 35.523438 -38.871094 L 27.480469 -38.871094 L 27.480469 -30.832031 Z M 35.523438 -30.832031 "/></g></g></g><g fill="#ff0303" fill-opacity="1"><g transform="translate(206.638135, 87.708917)"><g><path d="M 11.394531 -38.871094 L 27.480469 -38.871094 L 27.480469 -27.480469 L 11.394531 -27.480469 L 11.394531 -38.871094 L 3.351562 -38.871094 L 3.351562 0 L 11.394531 0 L 11.394531 -19.4375 L 27.480469 -19.4375 L 27.480469 0 L 35.523438 0 L 35.523438 -38.871094 L 27.480469 -38.871094 L 27.480469 -46.914062 L 11.394531 -46.914062 Z M 11.394531 -38.871094 "/></g></g></g><g fill="#ff0303" fill-opacity="1"><g transform="translate(252.61154, 87.708917)"><g><path d="M 11.394531 -38.871094 L 27.480469 -38.871094 L 27.480469 -27.480469 L 35.523438 -27.480469 L 35.523438 -38.871094 L 27.480469 -38.871094 L 27.480469 -46.914062 L 3.351562 -46.914062 L 3.351562 0 L 11.394531 0 L 11.394531 -19.4375 L 27.480469 -19.4375 L 27.480469 0 L 35.523438 0 L 35.523438 -19.4375 L 27.480469 -19.4375 L 27.480469 -27.480469 L 11.394531 -27.480469 Z M 11.394531 -38.871094 "/></g></g></g><g fill="#ff0303" fill-opacity="1"><g transform="translate(298.584946, 87.708917)"><g><path d="M 3.351562 0 L 11.394531 0 L 11.394531 -46.914062 L 3.351562 -46.914062 Z M 3.351562 0 "/></g></g></g><g fill="#ff0303" fill-opacity="1"><g transform="translate(320.500082, 87.708917)"><g><path d="M 3.351562 -38.871094 L 3.351562 -27.480469 L 11.394531 -27.480469 L 11.394531 -19.4375 L 27.480469 -19.4375 L 27.480469 -8.042969 L 35.523438 -8.042969 L 35.523438 -19.4375 L 27.480469 -19.4375 L 27.480469 -27.480469 L 11.394531 -27.480469 L 11.394531 -38.871094 Z M 11.394531 -8.042969 L 11.394531 -16.085938 L 3.351562 -16.085938 L 3.351562 -8.042969 L 11.394531 -8.042969 L 11.394531 0 L 27.480469 0 L 27.480469 -8.042969 Z M 11.394531 -46.914062 L 11.394531 -38.871094 L 27.480469 -38.871094 L 27.480469 -30.832031 L 35.523438 -30.832031 L 35.523438 -38.871094 L 27.480469 -38.871094 L 27.480469 -46.914062 Z M 11.394531 -46.914062 "/></g></g></g><g fill="#ff0303" fill-opacity="1"><g transform="translate(366.473488, 87.708917)"><g><path d="M 3.351562 -38.871094 L 3.351562 -8.042969 L 11.394531 -8.042969 L 11.394531 0 L 27.480469 0 L 27.480469 -8.042969 L 11.394531 -8.042969 L 11.394531 -38.871094 Z M 11.394531 -46.914062 L 11.394531 -38.871094 L 27.480469 -38.871094 L 27.480469 -30.832031 L 35.523438 -30.832031 L 35.523438 -38.871094 L 27.480469 -38.871094 L 27.480469 -46.914062 Z M 35.523438 -8.042969 L 35.523438 -16.085938 L 27.480469 -16.085938 L 27.480469 -8.042969 Z M 35.523438 -8.042969 "/></g></g></g><g fill="#ff0303" fill-opacity="1"><g transform="translate(412.446893, 87.708917)"><g><path d="M 11.394531 -38.871094 L 27.480469 -38.871094 L 27.480469 -27.480469 L 11.394531 -27.480469 L 11.394531 -38.871094 L 3.351562 -38.871094 L 3.351562 0 L 11.394531 0 L 11.394531 -19.4375 L 27.480469 -19.4375 L 27.480469 0 L 35.523438 0 L 35.523438 -38.871094 L 27.480469 -38.871094 L 27.480469 -46.914062 L 11.394531 -46.914062 Z M 11.394531 -38.871094 "/></g></g></g><g fill="#ff0303" fill-opacity="1"><g transform="translate(458.420298, 87.708917)"><g><path d="M 3.351562 -46.914062 L 3.351562 0 L 35.523438 0 L 35.523438 -8.042969 L 11.394531 -8.042969 L 11.394531 -46.914062 Z M 3.351562 -46.914062 "/></g></g></g><g fill="#ff0303" fill-opacity="1"><g transform="translate(504.393703, 87.708917)"><g><path d="M 11.394531 -38.871094 L 27.480469 -38.871094 L 27.480469 -8.042969 L 35.523438 -8.042969 L 35.523438 -38.871094 L 27.480469 -38.871094 L 27.480469 -46.914062 L 3.351562 -46.914062 L 3.351562 0 L 27.480469 0 L 27.480469 -8.042969 L 11.394531 -8.042969 Z M 11.394531 -38.871094 "/></g></g></g><g fill="#ff0303" fill-opacity="1"><g transform="translate(550.367109, 87.708917)"><g><path d="M 3.351562 -46.914062 L 3.351562 0 L 35.523438 0 L 35.523438 -8.042969 L 11.394531 -8.042969 L 11.394531 -19.4375 L 27.480469 -19.4375 L 27.480469 -27.480469 L 11.394531 -27.480469 L 11.394531 -38.871094 L 35.523438 -38.871094 L 35.523438 -46.914062 Z M 3.351562 -46.914062 "/></g></g></g><g fill="#ff0303" fill-opacity="1"><g transform="translate(596.407507, 87.708917)"><g><path d="M 19.4375 -8.042969 L 19.4375 -16.085938 L 11.394531 -16.085938 L 11.394531 -46.914062 L 3.351562 -46.914062 L 3.351562 -16.085938 L 11.394531 -16.085938 L 11.394531 -8.042969 L 19.4375 -8.042969 L 19.4375 0 L 27.480469 0 L 27.480469 -8.042969 Z M 35.523438 -46.914062 L 35.523438 -16.085938 L 43.5625 -16.085938 L 43.5625 -46.914062 Z M 27.480469 -16.085938 L 27.480469 -8.042969 L 35.523438 -8.042969 L 35.523438 -16.085938 Z M 27.480469 -16.085938 "/></g></g></g><g fill="#ff0303" fill-opacity="1"><g transform="translate(650.422684, 87.708917)"><g><path d="M 43.5625 -46.914062 L 43.5625 -39.074219 L 51.605469 -39.074219 L 51.605469 -46.914062 Z M 3.351562 -7.839844 L 3.351562 0 L 11.394531 0 L 11.394531 -7.839844 Z M 19.4375 -23.457031 L 19.4375 -15.617188 L 27.480469 -15.617188 L 27.480469 -23.457031 Z M 27.480469 -31.300781 L 27.480469 -23.457031 L 35.523438 -23.457031 L 35.523438 -31.300781 Z M 35.523438 -39.074219 L 35.523438 -31.300781 L 43.5625 -31.300781 L 43.5625 -39.074219 Z M 11.394531 -15.617188 L 11.394531 -7.839844 L 19.4375 -7.839844 L 19.4375 -15.617188 Z M 11.394531 -15.617188 "/></g></g></g><g fill="#ff0303" fill-opacity="1"><g transform="translate(712.47959, 87.708917)"><g><path d="M 3.351562 -43.5625 L 3.351562 -35.523438 L 11.394531 -35.523438 L 11.394531 -27.480469 L 19.4375 -27.480469 L 19.4375 -19.4375 L 27.480469 -19.4375 L 27.480469 -27.480469 L 19.4375 -27.480469 L 19.4375 -35.523438 L 11.394531 -35.523438 L 11.394531 -43.5625 Z M 3.351562 -11.394531 L 3.351562 -3.351562 L 11.394531 -3.351562 L 11.394531 -11.394531 Z M 11.394531 -19.4375 L 11.394531 -11.394531 L 19.4375 -11.394531 L 19.4375 -19.4375 Z M 11.394531 -19.4375 "/></g></g></g></svg>